<svg  viewBox="0 0 156 312" fill="none" xmlns="http://www.w3.org/2000/svg">
<path d="M1.28833 311.708C21.6959 311.632 41.8875 307.527 60.7045 299.628C79.5214 291.728 96.5933 280.191 110.94 265.678C125.287 251.165 136.627 233.961 144.309 215.054C151.991 196.148 155.863 175.91 155.705 155.503C155.546 135.096 151.359 114.921 143.383 96.1362C135.408 77.3513 123.802 60.3263 109.231 46.0381C94.6593 31.75 77.4099 20.4799 58.4723 12.8747C39.5346 5.26943 21.4063 0.258424 1 0.499895L0.999998 85.9999C10.1413 85.8917 18.1017 88.8695 26.5851 92.2763C35.0686 95.6832 42.7957 100.732 49.3231 107.132C55.8506 113.533 61.0498 121.16 64.6224 129.575C68.195 137.99 70.0708 147.027 70.1419 156.169C70.2131 165.311 68.4783 174.376 65.0371 182.846C61.5959 191.315 56.516 199.022 50.0891 205.524C43.6621 212.025 36.0144 217.193 27.5851 220.732C19.1557 224.27 10.1106 226.11 0.968692 226.144L1.28833 311.708Z" fill="#FF9653"/>
</svg>
