<svg  viewBox="0 0 43 43" fill="none" xmlns="http://www.w3.org/2000/svg">
<path fill-rule="evenodd" clip-rule="evenodd" d="M8.92004 37.1542V21.7934C9.33968 21.8119 9.75871 21.7451 10.1519 21.5973C10.545 21.4494 10.9041 21.2234 11.2076 20.933C11.5111 20.6426 11.7526 20.2937 11.9175 19.9074C12.0825 19.5211 12.1675 19.1054 12.1675 18.6854C12.1767 19.5032 12.5077 20.2846 13.0887 20.8602C13.6697 21.4359 14.4541 21.7596 15.272 21.7612C16.0899 21.7628 16.8756 21.4422 17.4589 20.8688C18.0422 20.2954 18.3762 19.5154 18.3886 18.6976C18.3901 19.5226 18.7194 20.3133 19.3038 20.8956C19.8883 21.4779 20.6802 21.8041 21.5052 21.8026C22.3303 21.801 23.1209 21.4718 23.7032 20.8873C24.2855 20.3028 24.6118 19.511 24.6102 18.6859C24.6086 19.0944 24.6876 19.4993 24.8424 19.8773C24.9973 20.2553 25.2251 20.5991 25.5129 20.8891C25.8007 21.1791 26.1427 21.4095 26.5195 21.5673C26.8964 21.7251 27.3006 21.8071 27.7091 21.8087C28.5341 21.8118 29.3266 21.4871 29.9123 20.906C30.2022 20.6182 30.4327 20.2762 30.5905 19.8994C30.7483 19.5225 30.8303 19.1183 30.8318 18.7098C30.835 19.1278 30.9224 19.5408 31.0888 19.9243C31.2551 20.3077 31.4971 20.6537 31.8001 20.9416C32.1032 21.2295 32.4612 21.4533 32.8527 21.5998C33.2442 21.7462 33.6612 21.8123 34.0787 21.794V37.1542C34.0787 37.4488 33.9617 37.7314 33.7533 37.9398C33.545 38.1481 33.2624 38.2652 32.9677 38.2652H10.031C9.73639 38.2652 9.4538 38.1481 9.24545 37.9398C9.0371 37.7314 8.92004 37.4488 8.92004 37.1542ZM13.2085 25.3108C13.0612 25.3108 12.9199 25.3694 12.8157 25.4735C12.7115 25.5777 12.653 25.719 12.653 25.8663V31.353C12.653 31.5004 12.7115 31.6417 12.8157 31.7458C12.9199 31.85 13.0612 31.9085 13.2085 31.9085H18.6952C18.8425 31.9085 18.9838 31.85 19.088 31.7458C19.1922 31.6417 19.2507 31.5004 19.2507 31.353V25.8669C19.2507 25.7196 19.1922 25.5783 19.088 25.4741C18.9838 25.3699 18.8425 25.3114 18.6952 25.3114H13.2085V25.3108Z" fill="url(#paint0_linear_0_796)"/>
<path d="M5.94574 16.0993H12.1674V18.6852C12.1674 19.5102 11.8396 20.3015 11.2562 20.8849C10.6728 21.4683 9.88159 21.796 9.05655 21.796C8.23151 21.796 7.44027 21.4683 6.85688 20.8849C6.27349 20.3015 5.94574 19.5102 5.94574 18.6852V16.0993Z" fill="url(#paint1_linear_0_796)"/>
<path d="M12.1678 16.0993H18.3894V18.6852C18.3894 19.5102 18.0617 20.3015 17.4783 20.8849C16.8949 21.4683 16.1036 21.796 15.2786 21.796C14.4536 21.796 13.6623 21.4683 13.0789 20.8849C12.4955 20.3015 12.1678 19.5102 12.1678 18.6852V16.0993Z" fill="url(#paint2_linear_0_796)"/>
<path d="M12.1678 16.0993H18.3894V18.6852C18.3894 19.5102 18.0617 20.3015 17.4783 20.8849C16.8949 21.4683 16.1036 21.796 15.2786 21.796C14.4536 21.796 13.6623 21.4683 13.0789 20.8849C12.4955 20.3015 12.1678 19.5102 12.1678 18.6852V16.0993Z" fill="url(#paint3_linear_0_796)"/>
<path d="M18.3895 16.0993H24.6112V18.6852C24.6112 19.5102 24.2834 20.3015 23.7 20.8849C23.1166 21.4683 22.3254 21.796 21.5003 21.796C20.6753 21.796 19.8841 21.4683 19.3007 20.8849C18.7173 20.3015 18.3895 19.5102 18.3895 18.6852V16.0993Z" fill="url(#paint4_linear_0_796)"/>
<path d="M18.3895 16.0993H24.6112V18.6852C24.6112 19.5102 24.2834 20.3015 23.7 20.8849C23.1166 21.4683 22.3254 21.796 21.5003 21.796C20.6753 21.796 19.8841 21.4683 19.3007 20.8849C18.7173 20.3015 18.3895 19.5102 18.3895 18.6852V16.0993Z" fill="url(#paint5_linear_0_796)"/>
<path d="M24.6105 16.0993H30.8321V18.6852C30.8321 19.5102 30.5044 20.3015 29.921 20.8849C29.3376 21.4683 28.5463 21.796 27.7213 21.796C26.8962 21.796 26.105 21.4683 25.5216 20.8849C24.9382 20.3015 24.6105 19.5102 24.6105 18.6852V16.0993Z" fill="url(#paint6_linear_0_796)"/>
<path d="M24.6105 16.0993H30.8321V18.6852C30.8321 19.5102 30.5044 20.3015 29.921 20.8849C29.3376 21.4683 28.5463 21.796 27.7213 21.796C26.8962 21.796 26.105 21.4683 25.5216 20.8849C24.9382 20.3015 24.6105 19.5102 24.6105 18.6852V16.0993Z" fill="url(#paint7_linear_0_796)"/>
<path d="M30.8322 16.0993H37.0538V18.6852C37.0538 19.5102 36.7261 20.3015 36.1427 20.8849C35.5593 21.4683 34.7681 21.796 33.943 21.796C33.118 21.796 32.3267 21.4683 31.7433 20.8849C31.16 20.3015 30.8322 19.5102 30.8322 18.6852V16.0993Z" fill="url(#paint8_linear_0_796)"/>
<path d="M11.2597 5.35324C11.3515 5.16747 11.4934 5.01107 11.6694 4.90172C11.8454 4.79236 12.0485 4.73441 12.2557 4.73441H30.7434C30.9506 4.73441 31.1537 4.79236 31.3297 4.90172C31.5057 5.01107 31.6476 5.16747 31.7394 5.35324L37.0539 16.0994H5.94574L11.2597 5.35324Z" fill="url(#paint9_linear_0_796)"/>
<path d="M23.3013 25.8662C23.3013 25.7189 23.3598 25.5776 23.464 25.4734C23.5681 25.3692 23.7094 25.3107 23.8568 25.3107H29.7912C29.9385 25.3107 30.0798 25.3692 30.184 25.4734C30.2882 25.5776 30.3467 25.7189 30.3467 25.8662V38.265H23.3013V25.8662Z" fill="url(#paint10_linear_0_796)"/>
<defs>
<linearGradient id="paint0_linear_0_796" x1="34.0787" y1="38.2652" x2="9.43872" y2="37.9544" gradientUnits="userSpaceOnUse">
<stop stop-color="#F9AB53"/>
<stop offset="1" stop-color="#FCA038" stop-opacity="0.39"/>
</linearGradient>
<linearGradient id="paint1_linear_0_796" x1="8.0659" y1="18.0406" x2="11.3698" y2="21.649" gradientUnits="userSpaceOnUse">
<stop stop-color="#FBB361"/>
<stop offset="1" stop-color="#FFD6A8" stop-opacity="0.3"/>
</linearGradient>
<linearGradient id="paint2_linear_0_796" x1="12.1678" y1="16.0993" x2="15.7663" y2="22.4548" gradientUnits="userSpaceOnUse">
<stop stop-color="white" stop-opacity="0.8"/>
<stop offset="1" stop-color="white"/>
</linearGradient>
<linearGradient id="paint3_linear_0_796" x1="12.1678" y1="16.3459" x2="18.2535" y2="19.9985" gradientUnits="userSpaceOnUse">
<stop offset="0.065" stop-color="#FF9143"/>
<stop offset="1" stop-color="#FCA365" stop-opacity="0.5"/>
</linearGradient>
<linearGradient id="paint4_linear_0_796" x1="18.3895" y1="16.0993" x2="21.9875" y2="22.4548" gradientUnits="userSpaceOnUse">
<stop stop-color="white" stop-opacity="0.8"/>
<stop offset="1" stop-color="white"/>
</linearGradient>
<linearGradient id="paint5_linear_0_796" x1="18.3895" y1="16.3459" x2="24.4753" y2="19.9985" gradientUnits="userSpaceOnUse">
<stop offset="0.065" stop-color="#FF9143"/>
<stop offset="1" stop-color="#FCA365" stop-opacity="0.5"/>
</linearGradient>
<linearGradient id="paint6_linear_0_796" x1="24.6105" y1="16.0993" x2="28.209" y2="22.4548" gradientUnits="userSpaceOnUse">
<stop stop-color="white" stop-opacity="0.8"/>
<stop offset="1" stop-color="white"/>
</linearGradient>
<linearGradient id="paint7_linear_0_796" x1="24.6105" y1="16.3459" x2="30.6962" y2="19.9985" gradientUnits="userSpaceOnUse">
<stop offset="0.065" stop-color="#FF9143"/>
<stop offset="1" stop-color="#FCA365" stop-opacity="0.5"/>
</linearGradient>
<linearGradient id="paint8_linear_0_796" x1="30.8322" y1="16.3459" x2="36.9179" y2="19.9985" gradientUnits="userSpaceOnUse">
<stop offset="0.065" stop-color="#FF9143"/>
<stop offset="1" stop-color="#FCA365" stop-opacity="0.5"/>
</linearGradient>
<linearGradient id="paint9_linear_0_796" x1="5.94574" y1="5.22627" x2="18.6316" y2="24.3086" gradientUnits="userSpaceOnUse">
<stop offset="0.065" stop-color="#FF9143"/>
<stop offset="1" stop-color="#FCA365" stop-opacity="0.5"/>
</linearGradient>
<linearGradient id="paint10_linear_0_796" x1="24.5534" y1="38.2656" x2="29.5112" y2="25.3113" gradientUnits="userSpaceOnUse">
<stop stop-color="white"/>
<stop offset="1" stop-color="white" stop-opacity="0.5"/>
</linearGradient>
</defs>
</svg>
