<svg viewBox="0 0 49 49" fill="none" xmlns="http://www.w3.org/2000/svg">
<path fill-rule="evenodd" clip-rule="evenodd" d="M16.226 12.6445C16.226 12.4963 16.2848 12.3541 16.3897 12.2493C16.4945 12.1445 16.6366 12.0856 16.7849 12.0856H35.793C35.9412 12.0856 36.0834 12.1445 36.1882 12.2493C36.293 12.3541 36.3519 12.4963 36.3519 12.6445V42.3807C36.3519 42.529 36.293 42.6711 36.1882 42.7759C36.0834 42.8807 35.9412 42.9396 35.793 42.9396H16.7843C16.6361 42.9396 16.4939 42.8807 16.3891 42.7759C16.2843 42.6711 16.2254 42.529 16.2254 42.3807V12.6445H16.226ZM27.9656 26.8853C27.9656 26.737 28.0245 26.5949 28.1293 26.4901C28.2341 26.3852 28.3763 26.3264 28.5245 26.3264H31.8779C32.0261 26.3264 32.1683 26.3852 32.2731 26.4901C32.3779 26.5949 32.4368 26.737 32.4368 26.8853V30.2387C32.4368 30.3869 32.3779 30.529 32.2731 30.6339C32.1683 30.7387 32.0261 30.7976 31.8779 30.7976H28.5245C28.3763 30.7976 28.2341 30.7387 28.1293 30.6339C28.0245 30.529 27.9656 30.3869 27.9656 30.2387V26.8853ZM28.5245 34.1509C28.3763 34.1509 28.2341 34.2098 28.1293 34.3146C28.0245 34.4195 27.9656 34.5616 27.9656 34.7098V38.0632C27.9656 38.2115 28.0245 38.3536 28.1293 38.4584C28.2341 38.5632 28.3763 38.6221 28.5245 38.6221H31.8779C32.0261 38.6221 32.1683 38.5632 32.2731 38.4584C32.3779 38.3536 32.4368 38.2115 32.4368 38.0632V34.7098C32.4368 34.5616 32.3779 34.4195 32.2731 34.3146C32.1683 34.2098 32.0261 34.1509 31.8779 34.1509H28.5245ZM27.9656 19.0607C27.9656 18.9125 28.0245 18.7703 28.1293 18.6655C28.2341 18.5607 28.3763 18.5018 28.5245 18.5018H31.8779C32.0261 18.5018 32.1683 18.5607 32.2731 18.6655C32.3779 18.7703 32.4368 18.9125 32.4368 19.0607V22.4141C32.4368 22.5623 32.3779 22.7045 32.2731 22.8093C32.1683 22.9141 32.0261 22.973 31.8779 22.973H28.5245C28.3763 22.973 28.2341 22.9141 28.1293 22.8093C28.0245 22.7045 27.9656 22.5623 27.9656 22.4141V19.0607ZM20.6999 18.5018C20.5517 18.5018 20.4096 18.5607 20.3047 18.6655C20.1999 18.7703 20.141 18.9125 20.141 19.0607V22.4141C20.141 22.5623 20.1999 22.7045 20.3047 22.8093C20.4096 22.9141 20.5517 22.973 20.6999 22.973H24.0533C24.2016 22.973 24.3437 22.9141 24.4485 22.8093C24.5533 22.7045 24.6122 22.5623 24.6122 22.4141V19.0607C24.6122 18.9125 24.5533 18.7703 24.4485 18.6655C24.3437 18.5607 24.2016 18.5018 24.0533 18.5018H20.6999Z" fill="url(#paint0_linear_0_790)"/>
<path d="M26.2861 3.62939C26.5826 3.62939 26.8669 3.74716 27.0765 3.95679C27.2861 4.16642 27.4039 4.45073 27.4039 4.74719V8.48454C27.4039 8.781 27.2861 9.06532 27.0765 9.27495C26.8669 9.48457 26.5826 9.60234 26.2861 9.60234C25.9897 9.60234 25.7053 9.48457 25.4957 9.27495C25.2861 9.06532 25.1683 8.781 25.1683 8.48454V4.74719C25.1683 4.45073 25.2861 4.16642 25.4957 3.95679C25.7053 3.74716 25.9897 3.62939 26.2861 3.62939Z" fill="url(#paint1_linear_0_790)"/>
<path d="M31.3169 7.39423C31.3169 7.246 31.258 7.10384 31.1532 6.99903C31.0484 6.89421 30.9062 6.83533 30.758 6.83533H21.8156C21.6674 6.83533 21.5252 6.89421 21.4204 6.99903C21.3156 7.10384 21.2567 7.246 21.2567 7.39423V14.5895C21.2567 14.7377 21.3156 14.8799 21.4204 14.9847C21.5252 15.0895 21.6674 15.1484 21.8156 15.1484H30.758C30.9062 15.1484 31.0484 15.0895 31.1532 14.9847C31.258 14.8799 31.3169 14.7377 31.3169 14.5895V7.39423Z" fill="url(#paint2_linear_0_790)"/>
<path d="M10.8889 21.6679C10.8889 21.5715 10.9139 21.4767 10.9613 21.3928C11.0088 21.3089 11.0772 21.2387 11.1598 21.189C11.2425 21.1393 11.3366 21.1119 11.433 21.1093C11.5293 21.1067 11.6247 21.1292 11.7099 21.1744L24.0196 27.7224C24.1987 27.8177 24.3485 27.9598 24.453 28.1337C24.5575 28.3076 24.6127 28.5066 24.6126 28.7094V46.6261C24.6126 46.7743 24.5538 46.9164 24.4489 47.0213C24.3441 47.1261 24.202 47.185 24.0537 47.185H11.4478C11.2996 47.185 11.1574 47.1261 11.0526 47.0213C10.9478 46.9164 10.8889 46.7743 10.8889 46.6261V21.6679Z" fill="url(#paint3_linear_0_790)"/>
<defs>
<linearGradient id="paint0_linear_0_790" x1="16.2254" y1="13.4209" x2="39.9547" y2="21.9275" gradientUnits="userSpaceOnUse">
<stop offset="0.065" stop-color="#FF9143"/>
<stop offset="1" stop-color="#FFB581" stop-opacity="0.5"/>
</linearGradient>
<linearGradient id="paint1_linear_0_790" x1="25.1683" y1="3.8879" x2="28.0221" y2="4.47489" gradientUnits="userSpaceOnUse">
<stop offset="0.065" stop-color="#FF9143"/>
<stop offset="1" stop-color="#FFB581" stop-opacity="0.5"/>
</linearGradient>
<linearGradient id="paint2_linear_0_790" x1="21.2567" y1="7.1951" x2="30.5373" y2="13.3671" gradientUnits="userSpaceOnUse">
<stop offset="0.065" stop-color="#FF9143"/>
<stop offset="1" stop-color="#FFB581" stop-opacity="0.5"/>
</linearGradient>
<linearGradient id="paint3_linear_0_790" x1="24.6126" y1="47.185" x2="11.17" y2="47.1155" gradientUnits="userSpaceOnUse">
<stop stop-color="#FAA94C"/>
<stop offset="1" stop-color="#FDB868" stop-opacity="0.39"/>
</linearGradient>
</defs>
</svg>
