<svg viewBox="0 0 47 47" fill="none" xmlns="http://www.w3.org/2000/svg">
<path d="M12.1481 32.129L16.1948 27.0717L8.48129 27.3998L6.96295 29.2235L12.0996 32.2023C12.1117 32.178 12.1299 32.1538 12.1481 32.129Z" fill="url(#paint0_linear_0_780)"/>
<path d="M12.1481 32.129L16.1948 27.0717L8.48129 27.3998L6.96295 29.2235L12.0996 32.2023C12.1117 32.178 12.1299 32.1538 12.1481 32.129Z" fill="url(#paint1_linear_0_780)"/>
<path d="M30.2891 12.689L11.7808 6.96295L9.35605 9.30937L23.4864 19.0292C25.6354 16.8652 27.8578 14.7983 30.288 12.689H30.2891Z" fill="url(#paint2_linear_0_780)"/>
<path d="M30.2891 12.689L11.7808 6.96295L9.35605 9.30937L23.4864 19.0292C25.6354 16.8652 27.8578 14.7983 30.288 12.689H30.2891Z" fill="url(#paint3_linear_0_780)"/>
<path d="M13.9607 34.0868L16.8992 39.4908L18.7114 37.9284L19.3973 30.0202L13.9607 34.0868Z" fill="url(#paint4_linear_0_780)"/>
<path d="M13.9607 34.0868L16.8992 39.4908L18.7114 37.9284L19.3973 30.0202L13.9607 34.0868Z" fill="url(#paint5_linear_0_780)"/>
<path d="M34.0491 16.5614C31.8631 18.9199 29.7268 21.0718 27.4862 23.1447L37.625 38.0684L40.037 35.7341L34.0491 16.5614Z" fill="url(#paint6_linear_0_780)"/>
<path d="M39.0754 7.94745L34.5876 12.3123L34.5816 12.3062C34.0454 11.7591 33.3595 11.3826 32.6101 11.2239L32.1205 11.1208L34.441 9.13885C35.2811 8.42267 36.3057 7.95727 37.3977 7.79584L38.249 7.66793C38.4988 7.63008 38.7536 7.6912 38.9591 7.83829C38.9773 7.85648 39.0021 7.87468 39.0203 7.89893C39.0385 7.91106 39.0572 7.92926 39.0754 7.94745Z" fill="url(#paint7_linear_0_780)"/>
<path d="M34.5864 12.3123C34.0499 11.7612 33.3615 11.3823 32.6088 11.224L32.1192 11.1209L31.0905 11.9958C25.666 16.628 21.3376 20.9807 16.6112 26.543L12.1416 32.1289C11.7308 32.642 11.4571 33.2509 11.346 33.8987L11.1437 35.0895V35.1138L28.0295 20.3362L34.5858 12.3123L34.6228 12.2759L34.5858 12.3123H34.5864Z" fill="url(#paint8_linear_0_780)"/>
<path d="M39.3383 8.76846L39.1856 9.60701C38.9922 10.6898 38.4953 11.6955 37.7527 12.507L35.6963 14.7619L35.6037 14.2756C35.4655 13.5355 35.1121 12.8525 34.5876 12.3123L39.0753 7.94754C39.1123 7.98393 39.1487 8.02087 39.1856 8.06332C39.3262 8.27006 39.3813 8.51926 39.3389 8.76846H39.3383Z" fill="url(#paint9_linear_0_780)"/>
<path d="M39.3383 8.76846L39.1856 9.60701C38.9922 10.6898 38.4953 11.6955 37.7527 12.507L35.6963 14.7619L35.6037 14.2756C35.4655 13.5355 35.1121 12.8525 34.5876 12.3123L39.0753 7.94754C39.1123 7.98393 39.1487 8.02087 39.1856 8.06332C39.3262 8.27006 39.3813 8.51926 39.3389 8.76846H39.3383Z" fill="url(#paint10_linear_0_780)"/>
<path d="M34.5864 12.3123L28.6415 18.0934L11.1437 35.1132C11.1605 35.1311 11.179 35.1473 11.1988 35.1618H11.2297L12.4051 34.864C12.9096 34.7375 13.3841 34.5123 13.8011 34.2014L19.7642 29.7456C25.4891 25.206 29.9823 21.0232 34.7887 15.7591L35.7006 14.7618L35.6091 14.2755C35.466 13.5357 35.1106 12.8536 34.5864 12.3123Z" fill="white"/>
<path d="M34.5864 12.3123L28.6415 18.0934L11.1437 35.1132C11.1605 35.1311 11.179 35.1473 11.1988 35.1618H11.2297L12.4051 34.864C12.9096 34.7375 13.3841 34.5123 13.8011 34.2014L19.7642 29.7456C25.4891 25.206 29.9823 21.0232 34.7887 15.7591L35.7006 14.7618L35.6091 14.2755C35.466 13.5357 35.1106 12.8536 34.5864 12.3123Z" fill="url(#paint11_linear_0_780)"/>
<defs>
<linearGradient id="paint0_linear_0_780" x1="6.95634" y1="29.6376" x2="16.1915" y2="29.6376" gradientUnits="userSpaceOnUse">
<stop stop-color="white" stop-opacity="0.7"/>
<stop offset="1" stop-color="white" stop-opacity="0"/>
</linearGradient>
<linearGradient id="paint1_linear_0_780" x1="6.96295" y1="27.2938" x2="13.1734" y2="33.435" gradientUnits="userSpaceOnUse">
<stop offset="0.065" stop-color="#FF9143"/>
<stop offset="1" stop-color="#FAB787" stop-opacity="0.5"/>
</linearGradient>
<linearGradient id="paint2_linear_0_780" x1="9.35825" y1="12.9966" x2="30.2913" y2="12.9966" gradientUnits="userSpaceOnUse">
<stop stop-color="white" stop-opacity="0.4"/>
<stop offset="1" stop-color="white"/>
</linearGradient>
<linearGradient id="paint3_linear_0_780" x1="9.35605" y1="7.48516" x2="23.9461" y2="21.3953" gradientUnits="userSpaceOnUse">
<stop offset="0.065" stop-color="#FF9143"/>
<stop offset="1" stop-color="#FAB787" stop-opacity="0.5"/>
</linearGradient>
<linearGradient id="paint4_linear_0_780" x1="13.9601" y1="34.7539" x2="19.3995" y2="34.7539" gradientUnits="userSpaceOnUse">
<stop stop-color="white"/>
<stop offset="1" stop-color="white" stop-opacity="0.4"/>
</linearGradient>
<linearGradient id="paint5_linear_0_780" x1="13.9607" y1="30.4301" x2="20.5394" y2="32.5055" gradientUnits="userSpaceOnUse">
<stop offset="0.065" stop-color="#FF9143"/>
<stop offset="1" stop-color="#FAB787" stop-opacity="0.5"/>
</linearGradient>
<linearGradient id="paint6_linear_0_780" x1="27.4862" y1="17.4922" x2="42.628" y2="22.3482" gradientUnits="userSpaceOnUse">
<stop offset="0.065" stop-color="#FF9143"/>
<stop offset="0.546875" stop-color="#FFA769" stop-opacity="0.823084"/>
<stop offset="1" stop-color="#FFCFAD" stop-opacity="0.5"/>
</linearGradient>
<linearGradient id="paint7_linear_0_780" x1="32.1205" y1="7.85846" x2="37.6481" y2="12.3968" gradientUnits="userSpaceOnUse">
<stop offset="0.065" stop-color="#FF9143"/>
<stop offset="1" stop-color="#FAB787" stop-opacity="0.5"/>
</linearGradient>
<linearGradient id="paint8_linear_0_780" x1="11.1437" y1="12.1593" x2="35.3751" y2="25.1905" gradientUnits="userSpaceOnUse">
<stop offset="0.065" stop-color="#FF9143"/>
<stop offset="1" stop-color="#FAB787" stop-opacity="0.5"/>
</linearGradient>
<linearGradient id="paint9_linear_0_780" x1="38.2428" y1="13.8456" x2="36.4538" y2="8.89526" gradientUnits="userSpaceOnUse">
<stop stop-color="white" stop-opacity="0.7"/>
<stop offset="1" stop-color="white" stop-opacity="0"/>
</linearGradient>
<linearGradient id="paint10_linear_0_780" x1="34.5876" y1="8.24245" x2="40.112" y2="10.3655" gradientUnits="userSpaceOnUse">
<stop offset="0.065" stop-color="#FF9143"/>
<stop offset="1" stop-color="#FAB787" stop-opacity="0.5"/>
</linearGradient>
<linearGradient id="paint11_linear_0_780" x1="19.512" y1="20.0988" x2="32.7811" y2="34.3593" gradientUnits="userSpaceOnUse">
<stop stop-color="#FBB361"/>
<stop offset="1" stop-color="#EC9E46" stop-opacity="0.3"/>
</linearGradient>
</defs>
</svg>
